{
  "accessors": [
    {
      "bufferView": 2,
      "componentType": 5126,
      "count": 5697,
      "max": [
        1.155194640159607,
        -0.21357354521751404,
        11.89531421661377
      ],
      "min": [
        -1.1450164318084717,
        -1.0871500968933105,
        10.511853218078613
      ],
      "type": "VEC3"
    },
    {
      "bufferView": 2,
      "byteOffset": 68364,
      "componentType": 5126,
      "count": 5697,
      "max": [
        0.9996072053909302,
        0.9992655515670776,
        0.9992712736129761
      ],
      "min": [
        -0.997365415096283,
        -0.9999607801437378,
        -0.9966020584106445
      ],
      "type": "VEC3"
    },
    {
      "bufferView": 3,
      "componentType": 5126,
      "count": 5697,
      "max": [
        0.8901960849761963,
        0.8901960849761963,
        0.9058823585510254,
        1.0
      ],
      "min": [
        0.12941177189350128,
        0.12941177189350128,
        0.12941177189350128,
        1.0
      ],
      "type": "VEC4"
    },
    {
      "bufferView": 1,
      "componentType": 5126,
      "count": 5697,
      "max": [
        0.611328125,
        0.97900390625
      ],
      "min": [
        0.015472412109375,
        -0.00775909423828125
      ],
      "type": "VEC2"
    },
    {
      "bufferView": 0,
      "componentType": 5125,
      "count": 5823,
      "type": "SCALAR"
    },
    {
      "bufferView": 2,
      "byteOffset": 136728,
      "componentType": 5126,
      "count": 180,
      "max": [
        0.8008331656455994,
        -0.31247007846832275,
        11.66463565826416
      ],
      "min": [
        -0.7838490605354309,
        -0.9390895962715149,
        10.688453674316406
      ],
      "type": "VEC3"
    },
    {
      "bufferView": 2,
      "byteOffset": 138888,
      "componentType": 5126,
      "count": 180,
      "max": [
        0.9755480289459229,
        0.9558978080749512,
        0.9665256142616272
      ],
      "min": [
        -0.9805776476860046,
        -0.9863499402999878,
        -0.9362005591392517
      ],
      "type": "VEC3"
    },
    {
      "bufferView": 3,
      "byteOffset": 91152,
      "componentType": 5126,
      "count": 180,
      "max": [
        0.9998798966407776,
        0.9099152684211731,
        0.9800122380256653,
        1.0
      ],
      "min": [
        -0.9999074935913086,
        -0.9164700508117676,
        -0.9342514872550964,
        -1.0
      ],
      "type": "VEC4"
    },
    {
      "bufferView": 3,
      "byteOffset": 94032,
      "componentType": 5126,
      "count": 180,
      "max": [
        1.0,
        1.0,
        1.0,
        1.0
      ],
      "min": [
        1.0,
        1.0,
        1.0,
        1.0
      ],
      "type": "VEC4"
    },
    {
      "bufferView": 1,
      "byteOffset": 45576,
      "componentType": 5126,
      "count": 180,
      "max": [
        0.98095703125,
        0.9951171875
      ],
      "min": [
        0.005001068115234375,
        0.005001068115234375
      ],
      "type": "VEC2"
    },
    {
      "bufferView": 1,
      "byteOffset": 47016,
      "componentType": 5126,
      "count": 180,
      "max": [
        0.98095703125,
        0.9951171875
      ],
      "min": [
        0.005001068115234375,
        0.005001068115234375
      ],
      "type": "VEC2"
    },
    {
      "bufferView": 0,
      "byteOffset": 23292,
      "componentType": 5125,
      "count": 828,
      "type": "SCALAR"
    },
    {
      "bufferView": 2,
      "byteOffset": 141048,
      "componentType": 5126,
      "count": 5031,
      "max": [
        1.0351613759994507,
        2.2553610801696777,
        11.228331565856934
      ],
      "min": [
        -0.9337988495826721,
        0.48795926570892334,
        7.06892204284668
      ],
      "type": "VEC3"
    },
    {
      "bufferView": 2,
      "byteOffset": 201420,
      "componentType": 5126,
      "count": 5031,
      "max": [
        0.999962329864502,
        0.9999731779098511,
        0.9997819662094116
      ],
      "min": [
        -0.9999878406524658,
        -0.9999829530715942,
        -0.999780535697937
      ],
      "type": "VEC3"
    },
    {
      "bufferView": 3,
      "byteOffset": 96912,
      "componentType": 5126,
      "count": 5031,
      "max": [
        0.9999929070472717,
        0.999992847442627,
        0.9998946785926819,
        1.0
      ],
      "min": [
        -0.999972939491272,
        -0.9998963475227356,
        -0.9997474551200867,
        1.0
      ],
      "type": "VEC4"
    },
    {
      "bufferView": 1,
      "byteOffset": 48456,
      "componentType": 5126,
      "count": 5031,
      "max": [
        0.99560546875,
        0.99755859375
      ],
      "min": [
        0.0,
        0.0
      ],
      "type": "VEC2"
    },
    {
      "bufferView": 1,
      "byteOffset": 88704,
      "componentType": 5126,
      "count": 5031,
      "max": [
        0.99560546875,
        0.99755859375
      ],
      "min": [
        0.0,
        0.0
      ],
      "type": "VEC2"
    },
    {
      "bufferView": 0,
      "byteOffset": 26604,
      "componentType": 5125,
      "count": 18930,
      "type": "SCALAR"
    },
    {
      "bufferView": 2,
      "byteOffset": 261792,
      "componentType": 5126,
      "count": 8623,
      "max": [
        2.223426342010498,
        0.9925962090492249,
        11.96492862701416
      ],
      "min": [
        -2.293114185333252,
        -1.1051464080810547,
        5.176183700561523
      ],
      "type": "VEC3"
    },
    {
      "bufferView": 2,
      "byteOffset": 365268,
      "componentType": 5126,
      "count": 8623,
      "max": [
        0.9999769330024719,
        0.9997294545173645,
        0.9999551773071289
      ],
      "min": [
        -0.9994967579841614,
        -0.9997175931930542,
        -0.9999560713768005
      ],
      "type": "VEC3"
    },
    {
      "bufferView": 3,
      "byteOffset": 177408,
      "componentType": 5126,
      "count": 8623,
      "max": [
        0.99993896484375,
        0.9999746084213257,
        0.9999231100082397,
        1.0
      ],
      "min": [
        -0.9999622702598572,
        -0.9999890923500061,
        -0.9999759793281555,
        -1.0
      ],
      "type": "VEC4"
    },
    {
      "bufferView": 1,
      "byteOffset": 128952,
      "componentType": 5126,
      "count": 8623,
      "max": [
        0.99755859375,
        0.998046875
      ],
      "min": [
        0.001979827880859375,
        0.001190185546875
      ],
      "type": "VEC2"
    },
    {
      "bufferView": 1,
      "byteOffset": 197936,
      "componentType": 5126,
      "count": 8623,
      "max": [
        0.99755859375,
        0.998046875
      ],
      "min": [
        0.001979827880859375,
        0.001190185546875
      ],
      "type": "VEC2"
    },
    {
      "bufferView": 0,
      "byteOffset": 102324,
      "componentType": 5125,
      "count": 39768,
      "type": "SCALAR"
    },
    {
      "bufferView": 2,
      "byteOffset": 468744,
      "componentType": 5126,
      "count": 9406,
      "max": [
        1.1501110792160034,
        0.757853627204895,
        5.416524887084961
      ],
      "min": [
        -1.2104555368423462,
        -0.7434645891189575,
        3.256136178970337
      ],
      "type": "VEC3"
    },
    {
      "bufferView": 2,
      "byteOffset": 581616,
      "componentType": 5126,
      "count": 9406,
      "max": [
        0.9995788931846619,
        0.9999982118606567,
        0.9999951124191284
      ],
      "min": [
        -0.9995788931846619,
        -0.9998741745948792,
        -0.999997079372406
      ],
      "type": "VEC3"
    },
    {
      "bufferView": 3,
      "byteOffset": 315376,
      "componentType": 5126,
      "count": 9406,
      "max": [
        0.9999580979347229,
        0.9999438524246216,
        0.9998977184295654,
        1.0
      ],
      "min": [
        -0.9999580979347229,
        -0.9999488592147827,
        -0.9999167919158936,
        -1.0
      ],
      "type": "VEC4"
    },
    {
      "bufferView": 1,
      "byteOffset": 266920,
      "componentType": 5126,
      "count": 9406,
      "max": [
        1.9794921875,
        0.998046875
      ],
      "min": [
        0.0020008087158203125,
        0.0020008087158203125
      ],
      "type": "VEC2"
    },
    {
      "bufferView": 1,
      "byteOffset": 342168,
      "componentType": 5126,
      "count": 9406,
      "max": [
        1.9794921875,
        0.998046875
      ],
      "min": [
        0.0020008087158203125,
        0.0020008087158203125
      ],
      "type": "VEC2"
    },
    {
      "bufferView": 0,
      "byteOffset": 261396,
      "componentType": 5125,
      "count": 20796,
      "type": "SCALAR"
    },
    {
      "bufferView": 2,
      "byteOffset": 694488,
      "componentType": 5126,
      "count": 1840,
      "max": [
        2.47275972366333,
        -0.08127078413963318,
        8.463990211486816
      ],
      "min": [
        -2.496537685394287,
        -0.8566495776176453,
        7.279139518737793
      ],
      "type": "VEC3"
    },
    {
      "bufferView": 2,
      "byteOffset": 716568,
      "componentType": 5126,
      "count": 1840,
      "max": [
        0.9984459280967712,
        0.9969863295555115,
        0.984603226184845
      ],
      "min": [
        -0.9984450340270996,
        -0.9959931373596191,
        -0.9845213294029236
      ],
      "type": "VEC3"
    },
    {
      "bufferView": 3,
      "byteOffset": 465872,
      "componentType": 5126,
      "count": 1840,
      "max": [
        0.9997643232345581,
        0.9995625615119934,
        0.9588537216186523,
        1.0
      ],
      "min": [
        -0.9997644424438477,
        -0.996776819229126,
        -0.9433120489120483,
        -1.0
      ],
      "type": "VEC4"
    },
    {
      "bufferView": 1,
      "byteOffset": 417416,
      "componentType": 5126,
      "count": 1840,
      "max": [
        0.998046875,
        0.998046875
      ],
      "min": [
        0.010986328125,
        0.0085906982421875
      ],
      "type": "VEC2"
    },
    {
      "bufferView": 1,
      "byteOffset": 432136,
      "componentType": 5126,
      "count": 1840,
      "max": [
        0.998046875,
        0.998046875
      ],
      "min": [
        0.010986328125,
        0.0085906982421875
      ],
      "type": "VEC2"
    },
    {
      "bufferView": 0,
      "byteOffset": 344580,
      "componentType": 5125,
      "count": 8922,
      "type": "SCALAR"
    },
    {
      "bufferView": 2,
      "byteOffset": 738648,
      "componentType": 5126,
      "count": 5737,
      "max": [
        0.4436393082141876,
        0.2539023458957672,
        11.880875587463379
      ],
      "min": [
        -0.557245671749115,
        -0.8912777304649353,
        10.472545623779297
      ],
      "type": "VEC3"
    },
    {
      "bufferView": 2,
      "byteOffset": 807492,
      "componentType": 5126,
      "count": 5737,
      "max": [
        0.999983549118042,
        0.9999504089355469,
        0.9999212026596069
      ],
      "min": [
        -0.9999164938926697,
        -0.9999629855155945,
        -0.9998418092727661
      ],
      "type": "VEC3"
    },
    {
      "bufferView": 3,
      "byteOffset": 495312,
      "componentType": 5126,
      "count": 5737,
      "max": [
        1.0,
        0.9998261332511902,
        0.9999629855155945,
        1.0
      ],
      "min": [
        -0.9999993443489075,
        -0.9999685883522034,
        -0.9979212880134583,
        -1.0
      ],
      "type": "VEC4"
    },
    {
      "bufferView": 1,
      "byteOffset": 446856,
      "componentType": 5126,
      "count": 5737,
      "max": [
        0.99658203125,
        0.998046875
      ],
      "min": [
        0.00556182861328125,
        0.0021190643310546875
      ],
      "type": "VEC2"
    },
    {
      "bufferView": 1,
      "byteOffset": 492752,
      "componentType": 5126,
      "count": 5737,
      "max": [
        0.99658203125,
        0.998046875
      ],
      "min": [
        0.00556182861328125,
        0.0021190643310546875
      ],
      "type": "VEC2"
    },
    {
      "bufferView": 0,
      "byteOffset": 380268,
      "componentType": 5125,
      "count": 20424,
      "type": "SCALAR"
    }
  ],
  "asset": {
    "extras": {
      "author": "sludud (https://sketchfab.com/sludud)",
      "license": "SKETCHFAB Standard (https://sketchfab.com/licenses)",
      "source": "https://sketchfab.com/3d-models/arctic-hazmat-rust-4acbf4aa14e24a3cb7e5131e91f6ab66",
      "title": "ARCTIC HAZMAT RUST"
    },
    "generator": "Sketchfab-16.12.0",
    "version": "2.0"
  },
  "bufferViews": [
    {
      "buffer": 0,
      "byteLength": 461964,
      "name": "floatBufferViews",
      "target": 34963
    },
    {
      "buffer": 0,
      "byteLength": 538648,
      "byteOffset": 461964,
      "byteStride": 8,
      "name": "floatBufferViews",
      "target": 34962
    },
    {
      "buffer": 0,
      "byteLength": 876336,
      "byteOffset": 1000612,
      "byteStride": 12,
      "name": "floatBufferViews",
      "target": 34962
    },
    {
      "buffer": 0,
      "byteLength": 587104,
      "byteOffset": 1876948,
      "byteStride": 16,
      "name": "floatBufferViews",
      "target": 34962
    }
  ],
  "buffers": [
    {
      "byteLength": 2464052,
      "uri": "scene.bin"
    }
  ],
  "images": [
    {
      "uri": "textures/fur_trim_base_baseColor.png"
    },
    {
      "uri": "textures/fur_trim_base_normal.png"
    },
    {
      "uri": "textures/ArcticHazmat_Backpack_baseColor.png"
    },
    {
      "uri": "textures/ArcticHazmat_Backpack_normal.png"
    },
    {
      "uri": "textures/ArcticHazmat_Body_baseColor.png"
    },
    {
      "uri": "textures/ArcticHazmat_Body_normal.png"
    },
    {
      "uri": "textures/ArcticHazmat_Boots_baseColor.png"
    },
    {
      "uri": "textures/ArcticHazmat_Boots_normal.png"
    },
    {
      "uri": "textures/ArcticHazmat_Gloves_baseColor.png"
    },
    {
      "uri": "textures/ArcticHazmat_Gloves_normal.png"
    },
    {
      "uri": "textures/ArcticHazmat_Mask_baseColor.png"
    },
    {
      "uri": "textures/ArcticHazmat_Mask_normal.png"
    }
  ],
  "materials": [
    {
      "doubleSided": true,
      "name": "fur_trim_hair",
      "pbrMetallicRoughness": {
        "baseColorFactor": [
          0.8,
          0.8,
          0.8,
          1.0
        ],
        "metallicFactor": 0.0,
        "roughnessFactor": 0.8308205978495098
      }
    },
    {
      "doubleSided": true,
      "name": "fur_trim_base",
      "normalTexture": {
        "index": 1
      },
      "pbrMetallicRoughness": {
        "baseColorTexture": {
          "index": 0
        },
        "metallicFactor": 0.0,
        "roughnessFactor": 0.8563571712328628
      }
    },
    {
      "doubleSided": true,
      "name": "ArcticHazmat_Backpack",
      "normalTexture": {
        "index": 3
      },
      "pbrMetallicRoughness": {
        "baseColorTexture": {
          "index": 2
        },
        "metallicFactor": 0.0,
        "roughnessFactor": 0.7885257473118872
      }
    },
    {
      "doubleSided": true,
      "name": "ArcticHazmat_Body",
      "normalTexture": {
        "index": 5
      },
      "pbrMetallicRoughness": {
        "baseColorTexture": {
          "index": 4
        },
        "metallicFactor": 0.0,
        "roughnessFactor": 0.7885257473118872
      }
    },
    {
      "doubleSided": true,
      "name": "ArcticHazmat_Boots",
      "normalTexture": {
        "index": 7
      },
      "pbrMetallicRoughness": {
        "baseColorTexture": {
          "index": 6
        },
        "metallicFactor": 0.0,
        "roughnessFactor": 0.7885257473118872
      }
    },
    {
      "doubleSided": true,
      "name": "ArcticHazmat_Gloves",
      "normalTexture": {
        "index": 9
      },
      "pbrMetallicRoughness": {
        "baseColorTexture": {
          "index": 8
        },
        "metallicFactor": 0.0,
        "roughnessFactor": 0.7885257473118872
      }
    },
    {
      "doubleSided": true,
      "name": "ArcticHazmat_Mask",
      "normalTexture": {
        "index": 11
      },
      "pbrMetallicRoughness": {
        "baseColorTexture": {
          "index": 10
        },
        "metallicFactor": 0.0,
        "roughnessFactor": 0.7885257473118872
      }
    }
  ],
  "meshes": [
    {
      "name": "arctichazmat_furtrim_LOD0_fur_trim_hair_0",
      "primitives": [
        {
          "attributes": {
            "COLOR_0": 2,
            "NORMAL": 1,
            "POSITION": 0,
            "TEXCOORD_0": 3
          },
          "indices": 4,
          "material": 0,
          "mode": 4
        }
      ]
    },
    {
      "name": "arctichazmat_furtrim_LOD0_fur_trim_base_0",
      "primitives": [
        {
          "attributes": {
            "COLOR_0": 8,
            "NORMAL": 6,
            "POSITION": 5,
            "TANGENT": 7,
            "TEXCOORD_0": 9,
            "TEXCOORD_1": 10
          },
          "indices": 11,
          "material": 1,
          "mode": 4
        }
      ]
    },
    {
      "name": "Bag_LOD0_ArcticHazmat_Backpack_0",
      "primitives": [
        {
          "attributes": {
            "NORMAL": 13,
            "POSITION": 12,
            "TANGENT": 14,
            "TEXCOORD_0": 15,
            "TEXCOORD_1": 16
          },
          "indices": 17,
          "material": 2,
          "mode": 4
        }
      ]
    },
    {
      "name": "Body_LOD0_ArcticHazmat_Body_0",
      "primitives": [
        {
          "attributes": {
            "NORMAL": 19,
            "POSITION": 18,
            "TANGENT": 20,
            "TEXCOORD_0": 21,
            "TEXCOORD_1": 22
          },
          "indices": 23,
          "material": 3,
          "mode": 4
        }
      ]
    },
    {
      "name": "Boots_LOD0_ArcticHazmat_Boots_0",
      "primitives": [
        {
          "attributes": {
            "NORMAL": 25,
            "POSITION": 24,
            "TANGENT": 26,
            "TEXCOORD_0": 27,
            "TEXCOORD_1": 28
          },
          "indices": 29,
          "material": 4,
          "mode": 4
        }
      ]
    },
    {
      "name": "Gloves_LOD0_ArcticHazmat_Gloves_0",
      "primitives": [
        {
          "attributes": {
            "NORMAL": 31,
            "POSITION": 30,
            "TANGENT": 32,
            "TEXCOORD_0": 33,
            "TEXCOORD_1": 34
          },
          "indices": 35,
          "material": 5,
          "mode": 4
        }
      ]
    },
    {
      "name": "Head_LOD0_ArcticHazmat_Mask_0",
      "primitives": [
        {
          "attributes": {
            "NORMAL": 37,
            "POSITION": 36,
            "TANGENT": 38,
            "TEXCOORD_0": 39,
            "TEXCOORD_1": 40
          },
          "indices": 41,
          "material": 6,
          "mode": 4
        }
      ]
    }
  ],
  "nodes": [
    {
      "children": [
        1
      ],
      "matrix": [
        1.0,
        0.0,
        0.0,
        0.0,
        0.0,
        2.220446049250313e-16,
        -1.0,
        0.0,
        0.0,
        1.0,
        2.220446049250313e-16,
        0.0,
        0.0,
        0.0,
        0.0,
        1.0
      ],
      "name": "Sketchfab_model"
    },
    {
      "children": [
        2
      ],
      "matrix": [
        0.009999999776482582,
        0.0,
        0.0,
        0.0,
        0.0,
        0.0,
        0.009999999776482582,
        0.0,
        0.0,
        -0.009999999776482582,
        0.0,
        0.0,
        0.0,
        0.0,
        0.0,
        1.0
      ],
      "name": "vahy.fbx"
    },
    {
      "children": [
        3,
        6,
        8,
        10,
        12,
        14
      ],
      "name": "RootNode"
    },
    {
      "children": [
        4,
        5
      ],
      "matrix": [
        100.0,
        0.0,
        0.0,
        0.0,
        0.0,
        -1.629206793918314e-05,
        -99.99999999999868,
        0.0,
        0.0,
        99.99999999999868,
        -1.629206793918314e-05,
        0.0,
        0.0,
        0.0,
        0.0,
        1.0
      ],
      "name": "arctichazmat_furtrim_LOD0"
    },
    {
      "mesh": 0,
      "name": "arctichazmat_furtrim_LOD0_fur_trim_hair_0"
    },
    {
      "mesh": 1,
      "name": "arctichazmat_furtrim_LOD0_fur_trim_base_0"
    },
    {
      "children": [
        7
      ],
      "matrix": [
        100.0,
        0.0,
        0.0,
        0.0,
        0.0,
        -1.629206793918314e-05,
        -99.99999999999868,
        0.0,
        0.0,
        99.99999999999868,
        -1.629206793918314e-05,
        0.0,
        0.0,
        0.0,
        0.0,
        1.0
      ],
      "name": "Bag_LOD0"
    },
    {
      "mesh": 2,
      "name": "Bag_LOD0_ArcticHazmat_Backpack_0"
    },
    {
      "children": [
        9
      ],
      "matrix": [
        100.0,
        0.0,
        0.0,
        0.0,
        0.0,
        -1.629206793918314e-05,
        -99.99999999999868,
        0.0,
        0.0,
        99.99999999999868,
        -1.629206793918314e-05,
        0.0,
        0.0,
        0.0,
        0.0,
        1.0
      ],
      "name": "Body_LOD0"
    },
    {
      "mesh": 3,
      "name": "Body_LOD0_ArcticHazmat_Body_0"
    },
    {
      "children": [
        11
      ],
      "matrix": [
        100.0,
        0.0,
        0.0,
        0.0,
        0.0,
        -1.629206793918314e-05,
        -99.99999999999868,
        0.0,
        0.0,
        99.99999999999868,
        -1.629206793918314e-05,
        0.0,
        0.0,
        0.0,
        0.0,
        1.0
      ],
      "name": "Boots_LOD0"
    },
    {
      "mesh": 4,
      "name": "Boots_LOD0_ArcticHazmat_Boots_0"
    },
    {
      "children": [
        13
      ],
      "matrix": [
        100.0,
        0.0,
        0.0,
        0.0,
        0.0,
        -1.629206793918314e-05,
        -99.99999999999868,
        0.0,
        0.0,
        99.99999999999868,
        -1.629206793918314e-05,
        0.0,
        0.0,
        0.0,
        0.0,
        1.0
      ],
      "name": "Gloves_LOD0"
    },
    {
      "mesh": 5,
      "name": "Gloves_LOD0_ArcticHazmat_Gloves_0"
    },
    {
      "children": [
        15
      ],
      "matrix": [
        100.0,
        0.0,
        0.0,
        0.0,
        0.0,
        -1.629206793918314e-05,
        -99.99999999999868,
        0.0,
        0.0,
        99.99999999999868,
        -1.629206793918314e-05,
        0.0,
        0.0,
        0.0,
        0.0,
        1.0
      ],
      "name": "Head_LOD0"
    },
    {
      "mesh": 6,
      "name": "Head_LOD0_ArcticHazmat_Mask_0"
    }
  ],
  "samplers": [
    {
      "magFilter": 9729,
      "minFilter": 9987,
      "wrapS": 10497,
      "wrapT": 10497
    }
  ],
  "scene": 0,
  "scenes": [
    {
      "name": "Sketchfab_Scene",
      "nodes": [
        0
      ]
    }
  ],
  "textures": [
    {
      "sampler": 0,
      "source": 0
    },
    {
      "sampler": 0,
      "source": 1
    },
    {
      "sampler": 0,
      "source": 2
    },
    {
      "sampler": 0,
      "source": 3
    },
    {
      "sampler": 0,
      "source": 4
    },
    {
      "sampler": 0,
      "source": 5
    },
    {
      "sampler": 0,
      "source": 6
    },
    {
      "sampler": 0,
      "source": 7
    },
    {
      "sampler": 0,
      "source": 8
    },
    {
      "sampler": 0,
      "source": 9
    },
    {
      "sampler": 0,
      "source": 10
    },
    {
      "sampler": 0,
      "source": 11
    }
  ]
}
